<svg width="416" height="169" viewBox="0 0 416 169" fill="none" xmlns="http://www.w3.org/2000/svg">
<g clip-path="url(#clip0_1200_1271)">
<path d="M53.7338 5.07342C47.6563 1.61142 41.6412 0 34.8144 0C19.6113 0 11.2408 9.60019 11.2408 27.0298V45.4727H0V55.3007H11.2408V133.11H22.1785V55.3063H49.829V45.4788H22.1785V27.7415C22.1785 16.3705 26.8555 10.3632 35.7064 10.3632C40.4748 10.3632 45.2088 11.707 51.064 14.7192L51.9099 15.1576L54.2143 5.34673L53.7338 5.07342Z" fill="#141B4D"/>
<path d="M128.964 63.1647C122.115 51.4803 109.902 44.5903 95.8139 44.5903C83.6411 44.5903 72.5547 49.2539 64.59 57.7268C56.7567 66.0629 52.4402 77.4964 52.4402 89.9209C52.4402 115.465 70.6849 134.004 95.8139 134.004C110.273 134.004 122.366 127.149 129.319 115.1V133.11H139.902V45.4787H128.959V63.1647H128.964ZM129.319 90.0977C129.319 109.537 115.677 123.641 96.8829 123.641C77.6776 123.641 63.7325 109.531 63.7325 90.0977C63.7325 69.6331 77.746 54.7771 97.0601 54.7771C115.454 54.7715 129.319 69.9577 129.319 90.0977Z" fill="#141B4D"/>
<path d="M178.119 13.9438L167.181 15.1795V45.4774H155.763V55.3054H167.181V108.038C167.181 125.997 173.899 134.003 188.971 134.003C196.22 134.003 203.013 132.113 209.159 128.389L209.645 128.093L206.707 118.066L205.866 118.606C203.613 120.064 197.553 123.464 190.04 123.464C180.017 123.464 178.119 117.166 178.119 105.55V55.3054H209.691V45.4774H178.119V13.9438Z" fill="#141B4D"/>
<path d="M242.425 13.9438L231.487 15.1795V45.4774H220.069V55.3054H231.487V108.038C231.487 125.997 238.205 134.003 253.277 134.003C260.527 134.003 267.319 132.113 273.466 128.389L273.951 128.093L271.013 118.066L270.172 118.606C267.919 120.064 261.859 123.464 254.346 123.464C244.323 123.464 242.425 117.166 242.425 105.55V55.3054H273.997V45.4774H242.425V13.9438Z" fill="#141B4D"/>
<path d="M346.05 83.0836C343.306 106.401 325.53 123.819 311.482 123.819C305.862 123.728 302.076 122.344 299.583 119.458C296.107 115.438 295.101 108.366 296.513 97.8312L303.586 45.4746H292.803L285.581 98.3439C283.768 111.537 285.444 121.183 290.555 127.019C294.615 131.654 300.933 134.006 309.327 134.006C322.014 134.006 334.535 125.601 342.534 111.89L341.591 120.209C337.462 154.584 321.23 158.991 307.542 158.991C302.888 158.991 293.523 158.08 283.122 151.988L282.345 151.532L278.806 161.491L279.355 161.799C287.8 166.508 297.485 168.996 307.365 168.996C334.015 168.996 348.246 153.775 352.162 121.092L361.539 45.4746H350.767L346.05 83.0836Z" fill="#141B4D"/>
<path d="M364.796 21.1574L368.152 26.3845L373.355 22.5012V47.0711H380.222V13.8633H374.876L364.796 21.1574Z" fill="#141B4D"/>
<path d="M400.864 25.2229C399.892 25.2229 398.703 25.3824 397.537 25.6671L397.851 20.2862H410.092V13.8633H391.396L390.401 31.7427L394.244 33.0808L394.564 32.8188C395.833 31.7825 397.291 31.3213 399.286 31.3213C401.917 31.3213 404.712 32.9897 404.712 36.0759C404.712 39.0311 402.494 41.0183 399.195 41.0183C396.759 41.0183 394.615 39.9421 393.317 38.0574L392.866 37.4026L387.783 41.4397L388.217 42.0148C390.813 45.4595 394.981 47.4355 399.664 47.4355C406.851 47.4355 411.676 42.9087 411.676 36.1669C411.67 29.7213 407.228 25.2229 400.864 25.2229Z" fill="#141B4D"/>
</g>
<defs>
<clipPath id="clip0_1200_1271">
<rect width="416" height="169" fill="white"/>
</clipPath>
</defs>
</svg>
