<svg id="Layer_1" data-name="Layer 1" xmlns="http://www.w3.org/2000/svg" viewBox="0 0 792 432"><defs><style>.cls-1{fill:#141b4d;}</style></defs><path class="cls-1" d="M130,76.51A64.18,64.18,0,0,0,96.89,67.6c-26.59,0-41.23,16.86-41.23,47.47v32.4H36v17.26H55.66V301.38H74.79V164.73h48.36V147.47H74.79V116.32c0-20,8.18-30.52,23.66-30.52,8.34,0,16.62,2.36,26.86,7.65l1.48.77,4-17.23Z"/><path class="cls-1" d="M261.56,178.53c-12-20.51-33.34-32.62-58-32.62-21.28,0-40.68,8.19-54.61,23.07-13.7,14.64-21.25,34.71-21.25,56.54,0,44.86,31.9,77.42,75.86,77.42,25.29,0,46.44-12,58.6-33.2v31.64h18.51V147.47H261.56Zm.62,47.3c0,34.13-23.85,58.91-56.73,58.91-33.59,0-58-24.78-58-58.91,0-36,24.51-62,58.29-62C237.93,163.8,262.18,190.46,262.18,225.83Z"/><path class="cls-1" d="M347.51,92.09l-19.13,2.17v53.21h-20v17.26h20v92.61c0,31.54,11.75,45.6,38.11,45.6a67,67,0,0,0,35.31-9.86l.85-.52L397.51,275l-1.46.95c-3.95,2.57-14.54,8.53-27.68,8.53-17.53,0-20.86-11.06-20.86-31.46V164.73h55.23V147.47H347.51Z"/><path class="cls-1" d="M460,92.09l-19.14,2.17v53.21h-20v17.26h20v92.61c0,31.54,11.76,45.6,38.12,45.6a67,67,0,0,0,35.3-9.86l.85-.52L510,275l-1.47.95c-3.94,2.57-14.53,8.53-27.68,8.53C463.33,284.43,460,273.37,460,253V164.73h55.22V147.47H460Z"/><path class="cls-1" d="M641.23,213.51c-4.8,41-35.89,71.54-60.46,71.54-9.83-.15-16.44-2.59-20.81-7.66-6.08-7.06-7.84-19.48-5.38-38L567,147.47H548.1l-12.63,92.85c-3.16,23.16-.24,40.11,8.7,50.35,7.11,8.14,18.15,12.27,32.84,12.27,22.19,0,44.09-14.76,58.07-38.84l-1.65,14.61c-7.22,60.37-35.61,68.11-59.54,68.11-8.14,0-24.52-1.59-42.71-12.29l-1.36-.8-6.19,17.49,1,.54a100.46,100.46,0,0,0,49,12.64c46.61,0,71.51-26.73,78.35-84.13l16.41-132.8H649.49Z"/><polygon class="cls-1" points="674.02 104.76 679.89 113.94 688.99 107.12 688.99 150.27 701 150.27 701 91.95 691.65 91.95 674.02 104.76"/><path class="cls-1" d="M737.1,111.9a25.38,25.38,0,0,0-5.81.78l.55-9.46h21.4V92h-32.7l-1.74,31.4,6.72,2.35.56-.46a12.18,12.18,0,0,1,8.26-2.63c4.6,0,9.49,2.93,9.49,8.35,0,5.19-3.88,8.68-9.65,8.68a12.25,12.25,0,0,1-10.28-5.2l-.8-1.15-8.88,7.09.75,1c4.54,6.05,11.84,9.52,20,9.52,12.57,0,21-7.95,21-19.79C756,119.8,748.23,111.9,737.1,111.9Z"/></svg>