<svg class="Header__LogoStyled-sc-u1ae9t-2 acEVQ" width="103" height="26" viewBox="0 0 103 26" fill="none" xmlns="http://www.w3.org/2000/svg">
  <g clip-path="url(#clip0_1654_9716)">
    <path d="M3.33582 23.7824C3.67338 23.7003 6.12162 22.7136 6.90812 18.9116C7.3723 16.6682 6.97753 15.3473 6.7081 14.5428" stroke="#3FA134" stroke-width="2.51258" stroke-miterlimit="10"></path>
    <path d="M13.4992 25.1332C13.7126 24.7265 15.1305 22.2921 12.5874 18.4697C11.0868 16.2138 6.90873 14.2663 6.00581 13.898" stroke="#3FA134" stroke-width="2.51258" stroke-miterlimit="10"></path>
    <path d="M3.22177 16.0456C2.95753 15.4588 2.41426 13.9675 3.11991 12.0838C4.31423 8.89498 8.04798 7.35562 8.50265 7.17478" stroke="#3FA134" stroke-width="2.51258" stroke-miterlimit="10"></path>
    <path d="M16.8439 11.8801C16.1732 12.1119 14.474 12.5886 12.4015 11.9745C8.89349 10.9348 7.36595 7.67441 7.1875 7.27734" stroke="#3FA134" stroke-width="2.51258" stroke-miterlimit="10"></path>
    <path d="M7.26562 1.38379C7.29405 1.71138 7.43493 2.79534 8.43998 3.75521C9.7152 4.97279 11.3944 5.04685 11.6811 5.05529" stroke="#3FA134" stroke-width="2.51258" stroke-miterlimit="10"></path>
  </g>
  <path d="M33.6391 10.888L31.3501 18H30.2581 ...etc" fill="#777777"></path>
  <defs>
    <clipPath id="clip0_1654_9716">
      <rect width="18.578" height="26" fill="white" transform="translate(0.210938)"></rect>
    </clipPath>
  </defs>
</svg>
