<svg width="125" height="30" viewBox="0 0 125 30" fill="none" xmlns="http://www.w3.org/2000/svg">
<path d="M28.642 18.8737L40.7167 11.899L38.808 8.59804L26.7333 15.5691L33.7043 3.49432L30.3996 1.58682L23.4286 13.6603V0.52832H19.6124V13.6603L12.6463 1.58682L9.33555 3.49432L16.3066 15.5691L4.23305 8.59804L2.32555 11.899L14.4003 18.87H0.457031V22.6862H16.9936C16.7756 21.9779 16.7269 21.2283 16.8513 20.4977C16.9758 19.7671 17.2701 19.0759 17.7103 18.4798C18.1506 17.8836 18.7247 17.3991 19.3863 17.0652C20.048 16.7313 20.7788 16.5574 21.5199 16.5574C22.261 16.5574 22.9918 16.7313 23.6535 17.0652C24.3151 17.3991 24.8892 17.8836 25.3295 18.4798C25.7698 19.0759 26.064 19.7671 26.1885 20.4977C26.313 21.2283 26.2643 21.9779 26.0463 22.6862H42.5828V18.8737H28.642Z" fill="#17C95F"/>
<path d="M79.5319 9.54541H81.4406V22.6896H77.6244V9.54541H79.5319ZM70.6814 9.54541C69.221 9.54702 67.8209 10.1279 66.7883 11.1605C65.7557 12.1931 65.1749 13.5932 65.1732 15.0535V15.5797V19.1341V22.6896H68.9943V15.5797V15.0535C68.9943 14.6074 69.1716 14.1795 69.487 13.8641C69.8025 13.5486 70.2303 13.3714 70.6765 13.3714C71.1226 13.3714 71.5505 13.5486 71.866 13.8641C72.1814 14.1795 72.3586 14.6074 72.3586 15.0535H76.1846C76.183 13.5932 75.6022 12.1931 74.5695 11.1605C73.5369 10.1279 72.1368 9.54702 70.6765 9.54541H70.6814ZM61.7578 11.526C62.544 12.3122 63.1243 13.2802 63.4471 14.3442C63.7699 15.4082 63.8254 16.5354 63.6085 17.626C63.3917 18.7165 62.9092 19.7368 62.2039 20.5964C61.4985 21.4559 60.5921 22.1283 59.5649 22.5539C58.5376 22.9795 57.4213 23.1452 56.3147 23.0363C55.2082 22.9274 54.1455 22.5473 53.2209 21.9297C52.2964 21.312 51.5384 20.4759 51.0141 19.4953C50.4898 18.5148 50.2155 17.42 50.2153 16.3081C50.2153 16.2204 50.2153 16.1339 50.2214 16.0475C50.2275 15.961 50.2299 15.8769 50.2373 15.7905C50.2299 15.7271 50.2239 15.6686 50.2214 15.5992C50.219 15.5298 50.2153 15.4689 50.2153 15.4043V4.34668H54.0316V10.2227C55.2956 9.61129 56.7186 9.40853 58.103 9.64252C59.4875 9.8765 60.7649 10.5356 61.7578 11.5284V11.526ZM59.9221 16.3081C59.9235 15.6264 59.6885 14.9654 59.2572 14.4375C58.8258 13.9097 58.2247 13.5477 57.5564 13.4134C56.8881 13.279 56.1939 13.3805 55.592 13.7006C54.9901 14.0207 54.5179 14.5396 54.2557 15.1689C53.9936 15.7982 53.9577 16.4989 54.1542 17.1516C54.3508 17.8044 54.7676 18.3688 55.3336 18.7486C55.8997 19.1285 56.5799 19.3004 57.2584 19.235C57.937 19.1695 58.5719 18.8709 59.0549 18.3898C59.3294 18.1171 59.5474 17.7927 59.6962 17.4355C59.845 17.0783 59.9218 16.6951 59.9221 16.3081ZM109.543 11.0704C108.401 10.096 106.825 9.54541 105.085 9.54541C104.652 9.54539 104.22 9.58988 103.796 9.67818C103.384 9.76379 102.982 9.8907 102.596 10.057V4.34668H98.7798V15.3349C98.7798 15.3714 98.7798 15.408 98.7798 15.4457C98.7798 15.4835 98.7798 15.5188 98.7859 15.5541C98.792 15.5895 98.7859 15.654 98.7798 15.704C98.7737 15.7539 98.7798 15.8026 98.7798 15.8526V22.692H102.596V15.5834C102.598 14.9309 102.858 14.3057 103.32 13.8449C103.782 13.3841 104.408 13.1253 105.06 13.1253C105.72 13.1272 106.353 13.3853 106.826 13.8452C107.062 14.0695 107.25 14.3391 107.378 14.6378C107.507 14.9365 107.574 15.2581 107.576 15.5834V22.6896H111.389V15.2058C111.389 13.4652 110.683 12.0498 109.543 11.0704ZM79.5319 4.34668C79.0896 4.34615 78.6609 4.49898 78.3188 4.77914C77.9766 5.05931 77.7422 5.44945 77.6555 5.88309C77.5688 6.31673 77.6351 6.76701 77.8432 7.15721C78.0513 7.5474 78.3883 7.85335 78.7968 8.02291C79.2052 8.19248 79.6598 8.21515 80.083 8.08708C80.5063 7.95901 80.8721 7.68812 81.118 7.32058C81.3639 6.95303 81.4747 6.51159 81.4316 6.07147C81.3885 5.63136 81.1941 5.21982 80.8815 4.90699C80.7045 4.72931 80.4942 4.58835 80.2626 4.49219C80.031 4.39604 79.7826 4.34659 79.5319 4.34668ZM120.485 17.6407C120.465 18.0727 120.279 18.4804 119.967 18.7793C119.654 19.0782 119.239 19.2453 118.806 19.2461C118.585 19.2463 118.366 19.2029 118.162 19.1184C117.958 19.034 117.772 18.9101 117.616 18.7539C117.46 18.5976 117.336 18.4121 117.251 18.208C117.166 18.0038 117.123 17.785 117.123 17.564V16.7832V13.3604H123.228V9.54541H117.119V5.40397H113.302V16.7807V17.5615C113.291 19.022 113.862 20.4269 114.887 21.4669C115.912 22.507 117.309 23.0971 118.77 23.1074C120.23 23.1177 121.635 22.5475 122.675 21.522C123.715 20.4966 124.305 19.1 124.315 17.6395H120.489L120.485 17.6407ZM96.3412 13.6759C96.6923 14.509 96.8725 15.4041 96.8711 16.3081V19.4568V22.6056C96.8688 24.3964 96.1563 26.1132 94.8899 27.3794C93.6235 28.6456 91.9065 29.3578 90.1157 29.3598H86.096V25.5594H90.1157C90.8984 25.5578 91.6485 25.246 92.2017 24.6923C92.7549 24.1386 93.0661 23.3882 93.0671 22.6056V22.3912C91.8026 23.005 90.3783 23.2095 88.9922 22.9761C87.6061 22.7428 86.3273 22.0831 85.3335 21.0891C84.7152 20.4725 84.2214 19.7425 83.8792 18.9392C83.3563 17.7007 83.2148 16.3345 83.4728 15.0152C83.7308 13.6959 84.3766 12.4835 85.3274 11.5333C86.1114 10.7503 87.0756 10.1719 88.1354 9.84862C89.1952 9.52539 90.3181 9.4673 91.4056 9.67946C92.4931 9.89161 93.5118 10.3675 94.3724 11.0654C95.233 11.7633 95.909 12.6618 96.3412 13.682V13.6759ZM93.0524 16.3081C93.0528 15.7254 92.8803 15.1557 92.5568 14.6711C92.2332 14.1864 91.7732 13.8087 91.2349 13.5856C90.6966 13.3624 90.1042 13.304 89.5327 13.4177C88.9612 13.5313 88.4362 13.8119 88.0243 14.224C87.6097 14.6386 87.3281 15.1674 87.2155 15.7428C87.1029 16.3182 87.1644 16.9141 87.3921 17.4543C87.6964 18.1738 88.2739 18.743 88.9977 19.0369C89.7215 19.3309 90.5323 19.3255 91.2521 19.022C91.6022 18.8736 91.9203 18.6589 92.1888 18.3898C92.4626 18.1166 92.6797 17.7922 92.8279 17.435C92.9761 17.0778 93.0524 16.6949 93.0524 16.3081Z" fill="#13132D"/>
</svg>
